# xmcd
#
# Track frame offsets:
#	150
#	17637
#	31027
#	48465
#	62565
#	75042
#	92980
#	112910
#	127640
#	146107
#	162502
#	182802
#	196600
#	210815
#
# Disc length: 2988 seconds
#
# Revision: 6553702
# Processed by: cddbd v1.5.2PL0 Copyright (c) Steve Scherf et al.
# Submitted via: EZCDAudioConverter 8.5.0.1
#
DISCID=a20baa0e
DTITLE=Ilse Delange - World of Hurt
DYEAR=1998
DGENRE=Pop/Nederpop/Country/Country-Rock
TTITLE0=Flying Blind - (1998)
TTITLE1=Lonely Too - (1998)
TTITLE2=Just Like the Moon - (1998)
TTITLE3=What Does Your Heart Say Now - (1998)
TTITLE4=I'd Be Yours - (1998)
TTITLE5=World of Hurt - (1998)
TTITLE6=All the Woman You'll Ever Need - (1998)
TTITLE7=If You Had the Heart - (1998)
TTITLE8=Flying Solo - (1998)
TTITLE9=Old Tears - (1998)
TTITLE10=I'm Not So Tough - (1998)
TTITLE11=When We Don't Talk - (1998)
TTITLE12=Tap Dancing on the Highwire - (1998)
TTITLE13=You Are the Dream - (1998)
EXTD=
EXTT0=
EXTT1=
EXTT2=
EXTT3=
EXTT4=
EXTT5=
EXTT6=
EXTT7=
EXTT8=
EXTT9=
EXTT10=
EXTT11=
EXTT12=
EXTT13=
PLAYORDER=
